# xmcd
#
# Track frame offsets: 
#        150
#        26356
#        42253
#        63218
#        82055
#        105670
#        132615
#        151731
#        179152
#        191923
#
# Disc length: 2594 seconds
#
# Revision: 0
# Processed by: cddbd v1.5.2PL0 Copyright (c) Steve Scherf et al.
# Submitted via: ExactAudioCopy v0.95b4
#
DISCID=880a200a
DTITLE=Rainer Harter - Sehnsucht
DYEAR=2005
DGENRE=Gospel
TTITLE0=Sehnsucht nach dir
TTITLE1=Jesus du bist wunderbar
TTITLE2=Alle Ehre
TTITLE3=Mehr von dir
TTITLE4=Hoch erhoben
TTITLE5=Ich bring dir meine Stadt
TTITLE6=Zuhause
TTITLE7=Sehnsucht nach dir (Akk)
TTITLE8=Jesus du bist wunderbar (kurz)
TTITLE9=Index
EXTD=
EXTT0=
EXTT1=
EXTT2=
EXTT3=
EXTT4=
EXTT5=
EXTT6=
EXTT7=
EXTT8=
EXTT9=
PLAYORDER=
